<?xml version="1.0" encoding="UTF-8"?>
<svg version="1.1" xmlns="http://www.w3.org/2000/svg" width="115" height="114">
<path d="M0 0 C2.14429295 1.29947948 3.72290857 2.66429191 5.48706055 4.44140625 C6.10129883 5.05757813 6.71553711 5.67375 7.34838867 6.30859375 C7.9780957 6.95054688 8.60780273 7.5925 9.2565918 8.25390625 C9.89790039 8.89585938 10.53920898 9.5378125 11.19995117 10.19921875 C15.92848345 14.97268957 15.92848345 14.97268957 17.0690918 17.25390625 C18.02170898 17.23070313 18.97432617 17.2075 19.95581055 17.18359375 C21.21006836 17.16554688 22.46432617 17.1475 23.7565918 17.12890625 C24.99795898 17.10570313 26.23932617 17.0825 27.51831055 17.05859375 C31.0690918 17.25390625 31.0690918 17.25390625 36.0690918 19.25390625 C36.0690918 28.16390625 36.0690918 37.07390625 36.0690918 46.25390625 C37.3890918 46.91390625 38.7090918 47.57390625 40.0690918 48.25390625 C43.72636325 51.54545055 46.68160465 54.93806409 49.0690918 59.25390625 C48.90139421 63.57677741 45.64220895 66.23929549 42.8190918 69.19140625 C42.10172852 69.96000977 42.10172852 69.96000977 41.36987305 70.74414062 C40.65637695 71.50500977 40.65637695 71.50500977 39.9284668 72.28125 C39.45441406 72.7872876 38.98036133 73.2933252 38.49194336 73.81469727 C37.0690918 75.25390625 37.0690918 75.25390625 34.2878418 77.58984375 C31.24222116 81.24673332 31.11791726 84.30567972 30.8190918 88.94140625 C30.1357919 97.12050605 30.1357919 97.12050605 29.0690918 99.25390625 C28.28260254 99.2475415 27.49611328 99.24117676 26.68579102 99.23461914 C23.1042695 99.2259069 19.52531435 99.27063398 15.9440918 99.31640625 C14.0878418 99.2999707 14.0878418 99.2999707 12.1940918 99.28320312 C5.69235857 99.221129 5.69235857 99.221129 -0.04467773 101.80419922 C-1.51939862 103.55166419 -2.70329641 105.33070323 -3.9309082 107.25390625 C-7.9673372 110.32928073 -7.9673372 110.32928073 -10.77856445 110.109375 C-13.83056825 108.89632812 -15.49072915 106.93970119 -17.7434082 104.56640625 C-18.63157227 103.66792969 -19.51973633 102.76945312 -20.43481445 101.84375 C-21.8749969 100.34947619 -23.29337242 98.8319946 -24.64575195 97.2578125 C-27.46950345 94.26161816 -29.10502516 93.32480572 -33.2980957 92.96484375 C-35.74237187 92.99025203 -38.1870624 93.07816145 -40.6262207 93.23828125 C-44.01635518 93.25431025 -45.87336892 92.58836559 -48.9309082 91.25390625 C-48.96531006 90.42665039 -48.99971191 89.59939453 -49.03515625 88.74707031 C-49.20493334 84.99776034 -49.41123664 81.25132809 -49.6184082 77.50390625 C-49.6719043 76.20195313 -49.72540039 74.9 -49.78051758 73.55859375 C-49.85463867 72.30820313 -49.92875977 71.0578125 -50.00512695 69.76953125 C-50.09153442 68.04138184 -50.09153442 68.04138184 -50.1796875 66.27832031 C-51.13954446 62.41393682 -52.70310272 61.45266366 -55.9309082 59.25390625 C-57.73168945 56.89453125 -57.73168945 56.89453125 -59.2434082 54.50390625 C-60.01104492 53.30507812 -60.01104492 53.30507812 -60.79418945 52.08203125 C-61.16930664 51.47875 -61.54442383 50.87546875 -61.9309082 50.25390625 C-60.52271281 47.01492311 -58.85864911 45.02137457 -56.27075195 42.63671875 C-46.3119508 33.67520981 -46.3119508 33.67520981 -42.4934082 21.44140625 C-42.61198741 19.37716 -42.75336946 17.31391926 -42.9309082 15.25390625 C-42.63246334 13.91233271 -42.30508055 12.57636001 -41.9309082 11.25390625 C-41.11936279 11.26550781 -40.30781738 11.27710938 -39.47167969 11.2890625 C-35.76959327 11.31866439 -32.07044488 11.28684578 -28.3684082 11.25390625 C-27.0915918 11.27324219 -25.81477539 11.29257813 -24.49926758 11.3125 C-17.59914089 11.35364879 -17.59914089 11.35364879 -11.56103516 8.48095703 C-9.83513274 6.48454195 -8.39592189 4.44364007 -6.9309082 2.25390625 C-2.74094482 -1.05908805 -2.74094482 -1.05908805 0 0 Z M-7.0793457 10.28515625 C-12.36963027 15.91026895 -14.51076148 22.69126522 -14.9309082 30.25390625 C-13.27523188 28.06861918 -11.65457119 25.86599384 -10.0637207 23.6328125 C-6.62694008 18.81195875 -3.3256837 14.23667154 1.0690918 10.25390625 C0.4090918 8.93390625 -0.2509082 7.61390625 -0.9309082 6.25390625 C-3.28402711 6.25390625 -5.41009786 8.82885772 -7.0793457 10.28515625 Z M5.0690918 13.25390625 C-3.23673206 20.78308164 -11.77275641 30.611433 -12.9309082 42.25390625 C-11.82526648 45.8116851 -11.82526648 45.8116851 -9.9309082 48.25390625 C-8.9409082 47.75890625 -8.9409082 47.75890625 -7.9309082 47.25390625 C-7.23677652 45.20799911 -7.23677652 45.20799911 -6.6809082 42.75390625 C-3.77839101 32.59509606 2.44788367 26.00137833 11.0690918 20.25390625 C9.66193863 16.85328611 8.04040952 15.36160927 5.0690918 13.25390625 Z M-36.9309082 16.25390625 C-38.5938931 17.91689115 -38.18186371 19.8420424 -38.2434082 22.12890625 C-38.1950895 28.2895411 -36.81141817 33.79153451 -33.9309082 39.25390625 C-32.9409082 39.91390625 -31.9509082 40.57390625 -30.9309082 41.25390625 C-31.5909082 33.00390625 -32.2509082 24.75390625 -32.9309082 16.25390625 C-34.2509082 16.25390625 -35.5709082 16.25390625 -36.9309082 16.25390625 Z M-27.9309082 16.25390625 C-28.3905463 23.71025767 -27.92920569 30.53079907 -26.1184082 37.75390625 C-25.95308594 38.42357422 -25.78776367 39.09324219 -25.61743164 39.78320312 C-24.57685009 43.67509571 -23.35831366 47.01938848 -20.9309082 50.25390625 C-17.8351975 51.14597804 -17.8351975 51.14597804 -14.9309082 51.25390625 C-15.1990332 50.51140625 -15.4671582 49.76890625 -15.7434082 49.00390625 C-19.43144843 37.35746343 -20.46432996 28.28765958 -17.9309082 16.25390625 C-21.2309082 16.25390625 -24.5309082 16.25390625 -27.9309082 16.25390625 Z M7.0690918 29.25390625 C6.7390918 29.91390625 6.4090918 30.57390625 6.0690918 31.25390625 C6.61694336 31.12113281 7.16479492 30.98835938 7.72924805 30.8515625 C15.48686794 29.1234423 23.14953471 28.65516381 31.0690918 28.25390625 C31.0690918 26.60390625 31.0690918 24.95390625 31.0690918 23.25390625 C22.04813902 21.41630476 14.28098977 23.52137196 7.0690918 29.25390625 Z M-0.9309082 40.25390625 C-2.68053642 43.24285445 -2.9309082 44.79939457 -2.9309082 48.25390625 C-0.4922743 47.3024533 1.90136544 46.33611917 4.25268555 45.18359375 C12.79855001 41.18466237 21.93829394 41.14679905 31.0690918 43.25390625 C31.0690918 39.95390625 31.0690918 36.65390625 31.0690918 33.25390625 C19.70537356 32.70989846 8.8507297 34.0950972 -0.9309082 40.25390625 Z M-45.5559082 38.75390625 C-46.3396582 39.57890625 -47.1234082 40.40390625 -47.9309082 41.25390625 C-45.11795443 49.70741837 -36.83675643 54.87111527 -29.35668945 59.1171875 C-25.63865101 60.85945672 -23.05720632 61.39619239 -18.9309082 61.25390625 C-16.70646562 59.32162973 -16.70646562 59.32162973 -14.9309082 57.25390625 C-15.6321582 57.03476562 -16.3334082 56.815625 -17.0559082 56.58984375 C-28.6223962 52.72387086 -35.43428806 47.24714654 -40.9309082 36.25390625 C-43.29369556 36.02402119 -43.29369556 36.02402119 -45.5559082 38.75390625 Z M20.0690918 46.25390625 C22.58034373 48.97583369 25.4086066 50.95819941 28.4440918 53.06640625 C32.72020536 56.13048232 35.98975784 59.00654907 39.0690918 63.25390625 C40.0590918 62.59390625 41.0490918 61.93390625 42.0690918 61.25390625 C41.14678233 56.12496579 38.14329681 53.31310897 34.0690918 50.25390625 C29.5534953 48.09673411 25.11134958 46.25390625 20.0690918 46.25390625 Z M-52.9309082 47.25390625 C-53.5909082 48.57390625 -54.2509082 49.89390625 -54.9309082 51.25390625 C-51.22349476 56.9835452 -45.13883965 61.21207113 -38.5012207 62.85546875 C-36.11579871 63.1848323 -36.11579871 63.1848323 -32.9309082 63.25390625 C-35.44221673 61.23765854 -37.9594576 59.23169152 -40.5012207 57.25390625 C-41.34426758 56.59390625 -42.18731445 55.93390625 -43.0559082 55.25390625 C-44.32821289 54.26390625 -44.32821289 54.26390625 -45.6262207 53.25390625 C-47.9309082 51.25390625 -47.9309082 51.25390625 -49.6105957 49.00390625 C-50.04629883 48.42640625 -50.48200195 47.84890625 -50.9309082 47.25390625 C-51.5909082 47.25390625 -52.2509082 47.25390625 -52.9309082 47.25390625 Z M3.0690918 51.25390625 C5.29927103 53.48408549 6.74378656 53.9320913 9.6940918 54.94140625 C19.37009305 58.74767187 24.28868939 65.25443656 29.0690918 74.25390625 C31.3790918 72.27390625 33.6890918 70.29390625 36.0690918 68.25390625 C30.58895177 58.29001529 20.28337362 52.52063157 10.0690918 48.25390625 C7.17400669 48.25390625 5.47212706 49.73619977 3.0690918 51.25390625 Z M2.0690918 58.25390625 C2.4300293 59.01832031 2.7909668 59.78273437 3.1628418 60.5703125 C7.49033474 70.5596087 8.11603846 79.31613967 6.4831543 90.13671875 C6.34651367 91.16539063 6.20987305 92.1940625 6.0690918 93.25390625 C7.05177038 94.45951809 7.05177038 94.45951809 8.91674805 94.3515625 C10.9675293 94.31901042 13.01831055 94.28645833 15.0690918 94.25390625 C15.55028583 85.01498083 15.62790888 76.21547074 13.0690918 67.25390625 C12.89804932 66.5784375 12.72700684 65.90296875 12.55078125 65.20703125 C11.93402349 63.02877931 11.93402349 63.02877931 10.0690918 60.25390625 C7.34968796 59.04767564 5.05560317 58.69453908 2.0690918 58.25390625 Z M-14.5559082 63.62890625 C-23.93509617 69.47847048 -34.32009468 69.18314507 -44.9309082 67.25390625 C-44.6009082 70.55390625 -44.2709082 73.85390625 -43.9309082 77.25390625 C-33.11897601 77.84634089 -21.27838736 76.12550797 -11.9309082 70.25390625 C-10.7983972 68.02947 -10.7983972 68.02947 -10.5559082 65.56640625 C-10.42442383 64.75816406 -10.29293945 63.94992188 -10.1574707 63.1171875 C-10.08270508 62.50230469 -10.00793945 61.88742188 -9.9309082 61.25390625 C-11.72125924 61.25390625 -13.10732935 62.66132269 -14.5559082 63.62890625 Z M-3.9309082 61.25390625 C-4.15004883 62.09953125 -4.36918945 62.94515625 -4.5949707 63.81640625 C-7.42819324 73.95151127 -11.12757436 80.35881772 -19.31762695 86.9296875 C-20.96442306 88.28141603 -22.44784792 89.72604052 -23.9309082 91.25390625 C-21.9509082 92.90390625 -19.9709082 94.55390625 -17.9309082 96.25390625 C-10.51348599 92.862179 -7.11573505 86.1826778 -3.4934082 79.25390625 C-3.12699219 78.57763184 -2.76057617 77.90135742 -2.38305664 77.20458984 C-0.04609026 72.54984957 0.55347078 69.45241805 -0.9309082 64.25390625 C-2.34682647 62.3310754 -2.34682647 62.3310754 -3.9309082 61.25390625 Z M18.0690918 67.25390625 C19.0690918 69.25390625 19.0690918 69.25390625 19.0690918 69.25390625 Z M19.0690918 69.25390625 C19.1412793 70.053125 19.2134668 70.85234375 19.2878418 71.67578125 C19.92574712 79.22432752 20.1919113 86.68003705 20.0690918 94.25390625 C21.7190918 94.25390625 23.3690918 94.25390625 25.0690918 94.25390625 C26.60302535 85.5677765 25.51339866 78.95449637 21.4440918 71.12890625 C20.9903418 70.51015625 20.5365918 69.89140625 20.0690918 69.25390625 C19.7390918 69.25390625 19.4090918 69.25390625 19.0690918 69.25390625 Z M2.0690918 79.25390625 C3.0690918 81.25390625 3.0690918 81.25390625 3.0690918 81.25390625 Z M-27.06762695 80.70703125 C-32.62458434 81.76838737 -38.29000472 81.94899255 -43.9309082 82.25390625 C-43.9309082 83.90390625 -43.9309082 85.55390625 -43.9309082 87.25390625 C-36.50974759 88.76562415 -30.3157823 87.88795718 -23.73950195 83.9375 C-22.09244325 82.76958565 -20.50422995 81.51940417 -18.9309082 80.25390625 C-21.87115833 78.78378119 -24.00598789 79.9654231 -27.06762695 80.70703125 Z M1.0690918 81.25390625 C0.18670286 82.71641248 -0.66042503 84.20020749 -1.4934082 85.69140625 C-4.69884226 91.1585821 -8.57425233 95.67610033 -12.9309082 100.25390625 C-12.2709082 101.24390625 -11.6109082 102.23390625 -10.9309082 103.25390625 C-8.39748267 102.87088295 -7.16673547 102.49031011 -5.33325195 100.65234375 C-0.84432332 94.451637 2.65266635 89.22942516 2.0690918 81.25390625 C1.7390918 81.25390625 1.4090918 81.25390625 1.0690918 81.25390625 Z " fill="#22357A" transform="translate(63.930908203125,2.74609375)"/>
<path d="M0 0 C0.66 0.33 1.32 0.66 2 1 C-5.67276775 11.20826119 -5.67276775 11.20826119 -11.18945312 12.52099609 C-16.1645662 12.96900691 -21.05008916 12.57449141 -26 12 C-26 11.67 -26 11.34 -26 11 C-24.92621094 11.020625 -23.85242187 11.04125 -22.74609375 11.0625 C-14.68318222 11.23301489 -14.68318222 11.23301489 -7.484375 8.22265625 C-5.82071069 6.22264242 -4.43149089 4.16717971 -3 2 C-2.01 1.34 -1.02 0.68 0 0 Z " fill="#465D94" transform="translate(60,3)"/>
</svg>
